# xmcd
#
# Track frame offsets:
#	150
#	20386
#	34993
#	54217
#	77892
#	92849
#	109754
#	124958
#	157694
#	176163
#	199690
#	218399
#	237420
#	256439
#	274668
#	289165
#	308271
#
# Disc length: 4547 seconds
#
# Revision: 1
# Processed by: cddbd v1.5.2PL0 Copyright (c) Steve Scherf et al.
# Submitted via: audiograbber 1.83.01
#
DISCID=e011c111
DTITLE=Blue Rose - Blue Rose Nuggets Vol. 55
DYEAR=2012
DGENRE=Rock
TTITLE0=Sons Of Bill - Santa Ana Winds
TTITLE1=Micky And The Motorcars - Big Casino
TTITLE2=Tom Gillam - Hand Me Down Blues
TTITLE3=Rich Hopkins and Luminarios - It's Not Out There
TTITLE4=The Refugees - Chain Stores, Malls And Restaurants
TTITLE5=Israel Nash Gripka - Four Winds
TTITLE6=Deadman - This Old World's Not Gonna Change
TTITLE7=The Band Of Heathens - Judas 'Scariot Blues
TTITLE8=Leeroy Stagger - Capitalism (Must Die!) 
TTITLE9=Ruthie Foster - Long Time Gone
TTITLE10=Shurman - Hometown Judgement Day
TTITLE11=I See Hawks in L.A. - Bohemian Highway
TTITLE12=Wrinkle Neck Mules - When The Wheels Touch Down
TTITLE13=Carolyn Wonderland - St. Marks
TTITLE14=Drew Landry - Lap Of Luxury
TTITLE15=US Rails - Ring A Big Bell
TTITLE16=Hank Shizzoe - Hey Now Say Now
EXTD=
EXTT0=
EXTT1=
EXTT2=
EXTT3=
EXTT4=
EXTT5=
EXTT6=
EXTT7=
EXTT8=
EXTT9=
EXTT10=
EXTT11=
EXTT12=
EXTT13=
EXTT14=
EXTT15=
EXTT16=
PLAYORDER=
